<svg width="567" height="138" viewBox="0 0 567 138" fill="none" xmlns="http://www.w3.org/2000/svg">
<path d="M56.4829 23.136C66.7229 23.136 74.1042 25.7813 78.6269 31.072C83.2349 36.3627 84.3869 43.9147 82.0829 53.728C82.0829 53.984 81.9976 54.368 81.8269 54.88C81.1442 56.928 79.9069 58.336 78.1149 59.104C76.3229 59.872 74.3176 60.256 72.0989 60.256H49.6989L52.7709 51.936C53.4536 50.4 53.4536 49.12 52.7709 48.096C52.1736 46.9867 51.1069 46.432 49.5709 46.432C47.4376 46.432 45.9016 46.8587 44.9629 47.712C44.1096 48.48 43.2136 49.9733 42.2749 52.192L31.0109 81.12C29.7309 84.3627 29.3469 86.4533 29.8589 87.392C30.3709 88.3307 31.4376 88.8 33.0589 88.8C34.9362 88.8 36.4722 88.416 37.6669 87.648C38.8616 86.7947 39.8856 85.3013 40.7389 83.168L43.4269 76.512H66.8509C68.8136 76.512 70.3069 76.896 71.3309 77.664C72.4402 78.432 72.5682 79.7973 71.7149 81.76L71.2029 83.04C68.7282 88.8427 66.2962 93.4933 63.9069 96.992C61.6029 100.491 59.0429 103.179 56.2269 105.056C53.4962 106.848 50.3816 108 46.8829 108.512C43.4696 109.109 39.5016 109.408 34.9789 109.408H22.0509C18.3816 109.408 14.8829 108.896 11.5549 107.872C8.22691 106.763 5.53891 104.928 3.49091 102.368C1.44291 99.808 0.290909 96.4373 0.0349091 92.256C-0.221091 87.9893 0.930909 82.6987 3.49091 76.384C4.25891 74.4213 5.11224 72.16 6.05091 69.6C6.90424 67.3813 7.92824 64.6933 9.12291 61.536C10.3176 58.3787 11.7682 54.7093 13.4749 50.528C16.7176 42.2507 21.4962 35.6373 27.8109 30.688C34.1256 25.6533 41.8056 23.136 50.8509 23.136H56.4829Z" fill="white"/>
<path d="M133.108 23.136C138.655 23.136 143.22 23.648 146.804 24.672C150.473 25.696 153.375 27.104 155.508 28.896C157.641 30.6027 159.092 32.608 159.86 34.912C160.628 37.216 160.884 39.6907 160.628 42.336C160.628 44.64 160.244 46.944 159.476 49.248L136.436 108H109.172L130.164 51.552C130.847 50.016 130.889 48.736 130.292 47.712C129.695 46.6027 128.671 46.048 127.22 46.048C125.769 46.048 124.276 46.6027 122.74 47.712C121.289 48.736 120.223 50.016 119.54 51.552L96.6279 108H68.5959L106.868 13.92C107.636 11.9573 108.873 10.4213 110.58 9.312C112.287 8.11733 114.121 7.52 116.084 7.52H136.82L130.42 23.136H133.108Z" fill="white"/>
<path d="M210.013 23.136C215.048 23.136 219.4 23.8187 223.069 25.184C226.824 26.464 229.81 28.4267 232.029 31.072C234.333 33.632 235.784 36.7893 236.381 40.544C237.064 44.2987 236.85 48.608 235.741 53.472L235.357 54.496C234.248 58.1653 232.754 61.4507 230.877 64.352C229.085 67.2533 226.696 69.728 223.709 71.776C220.722 73.824 217.053 75.4453 212.701 76.64C208.434 77.8347 203.314 78.5173 197.341 78.688L206.301 51.936C206.984 50.4 206.984 49.12 206.301 48.096C205.704 46.9867 204.637 46.432 203.101 46.432C200.968 46.432 199.432 46.8587 198.493 47.712C197.554 48.48 196.658 49.9733 195.805 52.192L183.901 82.528C182.962 85.1733 182.792 86.88 183.389 87.648C184.072 88.416 185.138 88.8 186.589 88.8C190.685 88.8 195.122 88.7573 199.901 88.672C204.765 88.5867 209.586 87.9467 214.365 86.752H214.621C214.706 86.752 214.749 86.752 214.749 86.752C214.749 86.6667 214.792 86.624 214.877 86.624C215.645 86.4533 216.498 86.3253 217.437 86.24C218.461 86.1547 219.357 86.1973 220.125 86.368C220.893 86.5387 221.448 86.88 221.789 87.392C222.13 87.8187 222.088 88.544 221.661 89.568C221.661 89.7387 221.576 89.952 221.405 90.208C221.32 90.3787 221.277 90.5067 221.277 90.592C219.144 94.688 216.968 97.9733 214.749 100.448C212.616 102.923 210.269 104.843 207.709 106.208C205.149 107.488 202.29 108.341 199.133 108.768C196.061 109.195 192.52 109.408 188.509 109.408H175.581C171.912 109.408 168.413 108.896 165.085 107.872C161.757 106.763 159.069 104.928 157.021 102.368C154.973 99.808 153.821 96.4373 153.565 92.256C153.309 87.9893 154.418 82.6987 156.893 76.384C157.661 74.4213 158.514 72.16 159.453 69.6C160.306 67.3813 161.33 64.6933 162.525 61.536C163.805 58.3787 165.298 54.7093 167.005 50.528C170.248 42.2507 175.026 35.6373 181.341 30.688C187.656 25.6533 195.336 23.136 204.381 23.136H210.013Z" fill="white"/>
<path d="M282.89 45.792C282.293 46.3893 281.311 46.9013 279.946 47.328C278.666 47.7547 277.429 47.968 276.234 47.968C274.869 47.968 273.973 48.0533 273.546 48.224L249.226 108H221.706L255.626 24.672H283.146C290.143 24.672 295.818 25.952 300.17 28.512L282.89 45.792Z" fill="white"/>
<path d="M333.765 45.792C333.168 46.3893 332.186 46.9013 330.821 47.328C329.541 47.7547 328.304 47.968 327.109 47.968C325.744 47.968 324.848 48.0533 324.421 48.224L300.101 108H272.581L306.501 24.672H334.021C341.018 24.672 346.693 25.952 351.045 28.512L333.765 45.792Z" fill="white"/>
<path d="M427.008 24.672L394.112 108C392.149 112.523 390.016 116.405 387.712 119.648C385.408 122.891 383.019 125.579 380.544 127.712C378.069 129.931 375.595 131.68 373.12 132.96C370.645 134.24 368.256 135.179 365.952 135.776C360.576 137.312 355.029 137.483 349.312 136.288L365.696 109.408H355.072C351.403 109.408 347.904 108.896 344.576 107.872C341.248 106.763 338.56 104.928 336.512 102.368C334.464 99.808 333.312 96.4373 333.056 92.256C332.8 87.9893 333.952 82.6987 336.512 76.384L356.352 24.672H385.792L364.032 81.12C362.667 84.3627 362.24 86.4533 362.752 87.392C363.349 88.3307 364.459 88.8 366.08 88.8C367.957 88.8 369.493 88.416 370.688 87.648C371.883 86.7947 372.907 85.3013 373.76 83.168L396.416 24.672H427.008Z" fill="white"/>
<path d="M534.947 80.6671C534.168 80.6671 533.385 80.4688 532.696 80.0587C506.946 64.665 484.817 38.4957 472.101 21.445C478.788 56.8304 476.025 76.7615 475.887 77.7228C475.62 79.5647 473.676 80.8486 471.499 80.6402C469.343 80.4117 467.812 78.7345 468.079 76.8926C468.115 76.6271 471.763 49.8931 460.263 4.06484C459.85 2.42799 460.917 0.777704 462.759 0.206322C464.593 -0.371783 466.659 0.300432 467.583 1.7793C467.894 2.27674 499.095 51.7686 537.206 74.5533C538.989 75.6154 539.418 77.7127 538.174 79.2319C537.411 80.1697 536.191 80.6671 534.947 80.6671Z" fill="#77B255"/>
<path d="M537.104 29.6395C523.424 32.8661 517.226 38.1968 494.801 31.8813C476.226 26.6481 467.107 17.7413 469.831 10.6897C472.554 3.63818 482.346 0.0586376 500.921 5.29183C519.611 10.5586 517.147 16.9413 537.104 29.6395Z" fill="#5C913B"/>
<path d="M534.951 121C552.339 121 566.435 108.962 566.435 94.1113C566.435 79.2612 552.339 67.2227 534.951 67.2227C517.563 67.2227 503.467 79.2612 503.467 94.1113C503.467 108.962 517.563 121 534.951 121Z" fill="#BE1931"/>
<path d="M475.919 121C493.307 121 507.403 108.962 507.403 94.1113C507.403 79.2612 493.307 67.2227 475.919 67.2227C458.531 67.2227 444.435 79.2612 444.435 94.1113C444.435 108.962 458.531 121 475.919 121Z" fill="#BE1931"/>
</svg>
